<mxfile host="app.diagrams.net" modified="2023-07-24T08:37:05.292Z" agent="Mozilla/5.0 (Macintosh; Intel Mac OS X 10_15_7) AppleWebKit/537.36 (KHTML, like Gecko) Chrome/113.0.0.0 Safari/537.36" etag="BV16mErVFh8pv7FE6GfA" version="21.6.3" type="github">
  <diagram id="BtNMZVJrqAH4WvcJaVjf" name="第 1 页">
    <mxGraphModel dx="2394" dy="1566" grid="1" gridSize="10" guides="1" tooltips="1" connect="1" arrows="1" fold="1" page="0" pageScale="1" pageWidth="827" pageHeight="1169" math="0" shadow="0">
      <root>
        <mxCell id="0" />
        <mxCell id="1" parent="0" />
        <mxCell id="OCiZZpeiu9cfwGxBRhQB-9" style="edgeStyle=orthogonalEdgeStyle;rounded=0;orthogonalLoop=1;jettySize=auto;html=1;exitX=0.5;exitY=1;exitDx=0;exitDy=0;entryX=0.5;entryY=0;entryDx=0;entryDy=0;" parent="1" source="OCiZZpeiu9cfwGxBRhQB-1" target="OCiZZpeiu9cfwGxBRhQB-2" edge="1">
          <mxGeometry relative="1" as="geometry" />
        </mxCell>
        <mxCell id="OCiZZpeiu9cfwGxBRhQB-10" style="edgeStyle=orthogonalEdgeStyle;rounded=0;orthogonalLoop=1;jettySize=auto;html=1;exitX=0.5;exitY=1;exitDx=0;exitDy=0;" parent="1" source="OCiZZpeiu9cfwGxBRhQB-1" target="OCiZZpeiu9cfwGxBRhQB-5" edge="1">
          <mxGeometry relative="1" as="geometry" />
        </mxCell>
        <mxCell id="OCiZZpeiu9cfwGxBRhQB-1" value="&lt;font style=&quot;font-size: 22px;&quot;&gt;书籍&lt;/font&gt;" style="rounded=0;whiteSpace=wrap;html=1;" parent="1" vertex="1">
          <mxGeometry x="-301" y="-800" width="81" height="40" as="geometry" />
        </mxCell>
        <mxCell id="OCiZZpeiu9cfwGxBRhQB-11" style="edgeStyle=orthogonalEdgeStyle;rounded=0;orthogonalLoop=1;jettySize=auto;html=1;exitX=0.5;exitY=1;exitDx=0;exitDy=0;entryX=0.5;entryY=0;entryDx=0;entryDy=0;" parent="1" source="OCiZZpeiu9cfwGxBRhQB-2" target="OCiZZpeiu9cfwGxBRhQB-3" edge="1">
          <mxGeometry relative="1" as="geometry" />
        </mxCell>
        <mxCell id="OCiZZpeiu9cfwGxBRhQB-12" style="edgeStyle=orthogonalEdgeStyle;rounded=0;orthogonalLoop=1;jettySize=auto;html=1;exitX=0.5;exitY=1;exitDx=0;exitDy=0;entryX=0.5;entryY=0;entryDx=0;entryDy=0;" parent="1" source="OCiZZpeiu9cfwGxBRhQB-2" target="OCiZZpeiu9cfwGxBRhQB-4" edge="1">
          <mxGeometry relative="1" as="geometry" />
        </mxCell>
        <mxCell id="OCiZZpeiu9cfwGxBRhQB-2" value="&lt;font style=&quot;font-size: 22px;&quot;&gt;学科&lt;/font&gt;" style="rounded=0;whiteSpace=wrap;html=1;" parent="1" vertex="1">
          <mxGeometry x="-490" y="-720" width="80" height="40" as="geometry" />
        </mxCell>
        <mxCell id="OCiZZpeiu9cfwGxBRhQB-18" style="edgeStyle=orthogonalEdgeStyle;rounded=0;orthogonalLoop=1;jettySize=auto;html=1;exitX=0.5;exitY=1;exitDx=0;exitDy=0;entryX=0.5;entryY=0;entryDx=0;entryDy=0;" parent="1" source="OCiZZpeiu9cfwGxBRhQB-3" target="OCiZZpeiu9cfwGxBRhQB-16" edge="1">
          <mxGeometry relative="1" as="geometry" />
        </mxCell>
        <mxCell id="OCiZZpeiu9cfwGxBRhQB-19" style="edgeStyle=orthogonalEdgeStyle;rounded=0;orthogonalLoop=1;jettySize=auto;html=1;exitX=0.5;exitY=1;exitDx=0;exitDy=0;entryX=0.5;entryY=0;entryDx=0;entryDy=0;" parent="1" source="OCiZZpeiu9cfwGxBRhQB-3" target="OCiZZpeiu9cfwGxBRhQB-17" edge="1">
          <mxGeometry relative="1" as="geometry" />
        </mxCell>
        <mxCell id="OCiZZpeiu9cfwGxBRhQB-3" value="&lt;font style=&quot;font-size: 22px;&quot;&gt;社会科学&lt;/font&gt;" style="rounded=0;whiteSpace=wrap;html=1;" parent="1" vertex="1">
          <mxGeometry x="-631" y="-640" width="120" height="40" as="geometry" />
        </mxCell>
        <mxCell id="OCiZZpeiu9cfwGxBRhQB-22" style="edgeStyle=orthogonalEdgeStyle;rounded=0;orthogonalLoop=1;jettySize=auto;html=1;exitX=0.5;exitY=1;exitDx=0;exitDy=0;entryX=0.5;entryY=0;entryDx=0;entryDy=0;" parent="1" source="OCiZZpeiu9cfwGxBRhQB-4" target="OCiZZpeiu9cfwGxBRhQB-20" edge="1">
          <mxGeometry relative="1" as="geometry" />
        </mxCell>
        <mxCell id="OCiZZpeiu9cfwGxBRhQB-23" style="edgeStyle=orthogonalEdgeStyle;rounded=0;orthogonalLoop=1;jettySize=auto;html=1;exitX=0.5;exitY=1;exitDx=0;exitDy=0;entryX=0.5;entryY=0;entryDx=0;entryDy=0;" parent="1" source="OCiZZpeiu9cfwGxBRhQB-4" target="OCiZZpeiu9cfwGxBRhQB-21" edge="1">
          <mxGeometry relative="1" as="geometry" />
        </mxCell>
        <mxCell id="OCiZZpeiu9cfwGxBRhQB-4" value="&lt;font style=&quot;font-size: 22px;&quot;&gt;自然科学&lt;/font&gt;" style="rounded=0;whiteSpace=wrap;html=1;" parent="1" vertex="1">
          <mxGeometry x="-401" y="-640" width="120" height="40" as="geometry" />
        </mxCell>
        <mxCell id="OCiZZpeiu9cfwGxBRhQB-13" style="edgeStyle=orthogonalEdgeStyle;rounded=0;orthogonalLoop=1;jettySize=auto;html=1;exitX=0.5;exitY=1;exitDx=0;exitDy=0;entryX=0.5;entryY=0;entryDx=0;entryDy=0;" parent="1" source="OCiZZpeiu9cfwGxBRhQB-5" target="OCiZZpeiu9cfwGxBRhQB-6" edge="1">
          <mxGeometry relative="1" as="geometry" />
        </mxCell>
        <mxCell id="OCiZZpeiu9cfwGxBRhQB-14" style="edgeStyle=orthogonalEdgeStyle;rounded=0;orthogonalLoop=1;jettySize=auto;html=1;exitX=0.5;exitY=1;exitDx=0;exitDy=0;" parent="1" source="OCiZZpeiu9cfwGxBRhQB-5" target="OCiZZpeiu9cfwGxBRhQB-7" edge="1">
          <mxGeometry relative="1" as="geometry" />
        </mxCell>
        <mxCell id="OCiZZpeiu9cfwGxBRhQB-15" style="edgeStyle=orthogonalEdgeStyle;rounded=0;orthogonalLoop=1;jettySize=auto;html=1;exitX=0.5;exitY=1;exitDx=0;exitDy=0;" parent="1" source="OCiZZpeiu9cfwGxBRhQB-5" target="OCiZZpeiu9cfwGxBRhQB-8" edge="1">
          <mxGeometry relative="1" as="geometry" />
        </mxCell>
        <mxCell id="OCiZZpeiu9cfwGxBRhQB-5" value="&lt;font style=&quot;font-size: 22px;&quot;&gt;内容&lt;/font&gt;" style="rounded=0;whiteSpace=wrap;html=1;" parent="1" vertex="1">
          <mxGeometry x="-100" y="-720" width="80" height="40" as="geometry" />
        </mxCell>
        <mxCell id="OCiZZpeiu9cfwGxBRhQB-6" value="&lt;font style=&quot;font-size: 22px;&quot;&gt;小说&lt;/font&gt;" style="rounded=0;whiteSpace=wrap;html=1;" parent="1" vertex="1">
          <mxGeometry x="-240" y="-640" width="80" height="40" as="geometry" />
        </mxCell>
        <mxCell id="OCiZZpeiu9cfwGxBRhQB-7" value="&lt;font style=&quot;font-size: 22px;&quot;&gt;儿童读物&lt;/font&gt;" style="rounded=0;whiteSpace=wrap;html=1;" parent="1" vertex="1">
          <mxGeometry x="-120" y="-640" width="120" height="40" as="geometry" />
        </mxCell>
        <mxCell id="OCiZZpeiu9cfwGxBRhQB-8" value="&lt;font style=&quot;font-size: 22px;&quot;&gt;工具书&lt;/font&gt;" style="rounded=0;whiteSpace=wrap;html=1;" parent="1" vertex="1">
          <mxGeometry x="39" y="-640" width="80" height="40" as="geometry" />
        </mxCell>
        <mxCell id="OCiZZpeiu9cfwGxBRhQB-16" value="&lt;font style=&quot;font-size: 22px;&quot;&gt;历史&lt;/font&gt;" style="rounded=0;whiteSpace=wrap;html=1;" parent="1" vertex="1">
          <mxGeometry x="-670" y="-560" width="80" height="40" as="geometry" />
        </mxCell>
        <mxCell id="OCiZZpeiu9cfwGxBRhQB-17" value="&lt;span style=&quot;font-size: 22px;&quot;&gt;哲学&lt;/span&gt;" style="rounded=0;whiteSpace=wrap;html=1;" parent="1" vertex="1">
          <mxGeometry x="-560" y="-560" width="80" height="40" as="geometry" />
        </mxCell>
        <mxCell id="OCiZZpeiu9cfwGxBRhQB-20" value="&lt;font style=&quot;font-size: 22px;&quot;&gt;数学&lt;/font&gt;" style="rounded=0;whiteSpace=wrap;html=1;" parent="1" vertex="1">
          <mxGeometry x="-439" y="-560" width="80" height="40" as="geometry" />
        </mxCell>
        <mxCell id="B3kU9zZjSQWxvXf84LO1-3" style="edgeStyle=orthogonalEdgeStyle;rounded=0;orthogonalLoop=1;jettySize=auto;html=1;exitX=0.5;exitY=1;exitDx=0;exitDy=0;entryX=0.5;entryY=0;entryDx=0;entryDy=0;" edge="1" parent="1" source="OCiZZpeiu9cfwGxBRhQB-21" target="B3kU9zZjSQWxvXf84LO1-1">
          <mxGeometry relative="1" as="geometry" />
        </mxCell>
        <mxCell id="B3kU9zZjSQWxvXf84LO1-4" style="edgeStyle=orthogonalEdgeStyle;rounded=0;orthogonalLoop=1;jettySize=auto;html=1;exitX=0.5;exitY=1;exitDx=0;exitDy=0;entryX=0.5;entryY=0;entryDx=0;entryDy=0;" edge="1" parent="1" source="OCiZZpeiu9cfwGxBRhQB-21" target="B3kU9zZjSQWxvXf84LO1-2">
          <mxGeometry relative="1" as="geometry" />
        </mxCell>
        <mxCell id="OCiZZpeiu9cfwGxBRhQB-21" value="&lt;font style=&quot;font-size: 22px;&quot;&gt;计算机&lt;/font&gt;" style="rounded=0;whiteSpace=wrap;html=1;" parent="1" vertex="1">
          <mxGeometry x="-320" y="-560" width="80" height="40" as="geometry" />
        </mxCell>
        <mxCell id="B3kU9zZjSQWxvXf84LO1-1" value="&lt;font style=&quot;font-size: 22px;&quot;&gt;数据库&lt;/font&gt;" style="rounded=0;whiteSpace=wrap;html=1;" vertex="1" parent="1">
          <mxGeometry x="-387" y="-480" width="80" height="40" as="geometry" />
        </mxCell>
        <mxCell id="B3kU9zZjSQWxvXf84LO1-2" value="&lt;font style=&quot;font-size: 22px;&quot;&gt;操作系统&lt;/font&gt;" style="rounded=0;whiteSpace=wrap;html=1;" vertex="1" parent="1">
          <mxGeometry x="-266" y="-480" width="100" height="40" as="geometry" />
        </mxCell>
        <mxCell id="B3kU9zZjSQWxvXf84LO1-35" style="rounded=0;orthogonalLoop=1;jettySize=auto;html=1;exitX=0.5;exitY=1;exitDx=0;exitDy=0;entryX=0.5;entryY=0;entryDx=0;entryDy=0;edgeStyle=orthogonalEdgeStyle;curved=1;" edge="1" parent="1" source="B3kU9zZjSQWxvXf84LO1-5" target="B3kU9zZjSQWxvXf84LO1-6">
          <mxGeometry relative="1" as="geometry" />
        </mxCell>
        <mxCell id="B3kU9zZjSQWxvXf84LO1-36" style="rounded=0;orthogonalLoop=1;jettySize=auto;html=1;exitX=0.5;exitY=1;exitDx=0;exitDy=0;entryX=0.5;entryY=0;entryDx=0;entryDy=0;edgeStyle=orthogonalEdgeStyle;curved=1;" edge="1" parent="1" source="B3kU9zZjSQWxvXf84LO1-5" target="B3kU9zZjSQWxvXf84LO1-7">
          <mxGeometry relative="1" as="geometry" />
        </mxCell>
        <mxCell id="B3kU9zZjSQWxvXf84LO1-5" value="&lt;font style=&quot;font-size: 23px;&quot;&gt;root&lt;/font&gt;" style="rounded=1;whiteSpace=wrap;html=1;fillColor=#d5e8d4;strokeColor=#82b366;" vertex="1" parent="1">
          <mxGeometry x="-440" y="-320" width="79" height="40" as="geometry" />
        </mxCell>
        <mxCell id="B3kU9zZjSQWxvXf84LO1-22" style="rounded=0;orthogonalLoop=1;jettySize=auto;html=1;exitX=0.5;exitY=1;exitDx=0;exitDy=0;entryX=0.5;entryY=0;entryDx=0;entryDy=0;edgeStyle=orthogonalEdgeStyle;curved=1;" edge="1" parent="1" source="B3kU9zZjSQWxvXf84LO1-6" target="B3kU9zZjSQWxvXf84LO1-9">
          <mxGeometry relative="1" as="geometry" />
        </mxCell>
        <mxCell id="B3kU9zZjSQWxvXf84LO1-23" style="edgeStyle=orthogonalEdgeStyle;rounded=0;orthogonalLoop=1;jettySize=auto;html=1;exitX=0.5;exitY=1;exitDx=0;exitDy=0;entryX=0.5;entryY=0;entryDx=0;entryDy=0;curved=1;" edge="1" parent="1" source="B3kU9zZjSQWxvXf84LO1-6" target="B3kU9zZjSQWxvXf84LO1-10">
          <mxGeometry relative="1" as="geometry" />
        </mxCell>
        <mxCell id="B3kU9zZjSQWxvXf84LO1-24" style="rounded=0;orthogonalLoop=1;jettySize=auto;html=1;exitX=0.5;exitY=1;exitDx=0;exitDy=0;entryX=0.5;entryY=0;entryDx=0;entryDy=0;edgeStyle=orthogonalEdgeStyle;curved=1;" edge="1" parent="1" source="B3kU9zZjSQWxvXf84LO1-6" target="B3kU9zZjSQWxvXf84LO1-11">
          <mxGeometry relative="1" as="geometry" />
        </mxCell>
        <mxCell id="B3kU9zZjSQWxvXf84LO1-6" value="&lt;span style=&quot;font-size: 23px;&quot;&gt;r1&lt;/span&gt;" style="rounded=1;whiteSpace=wrap;html=1;fillColor=#ffe6cc;strokeColor=#d79b00;" vertex="1" parent="1">
          <mxGeometry x="-600" y="-240" width="79" height="40" as="geometry" />
        </mxCell>
        <mxCell id="B3kU9zZjSQWxvXf84LO1-32" style="rounded=0;orthogonalLoop=1;jettySize=auto;html=1;exitX=0.5;exitY=1;exitDx=0;exitDy=0;entryX=0.5;entryY=0;entryDx=0;entryDy=0;edgeStyle=orthogonalEdgeStyle;curved=1;" edge="1" parent="1" source="B3kU9zZjSQWxvXf84LO1-7" target="B3kU9zZjSQWxvXf84LO1-18">
          <mxGeometry relative="1" as="geometry" />
        </mxCell>
        <mxCell id="B3kU9zZjSQWxvXf84LO1-33" style="edgeStyle=orthogonalEdgeStyle;rounded=0;orthogonalLoop=1;jettySize=auto;html=1;exitX=0.5;exitY=1;exitDx=0;exitDy=0;entryX=0.5;entryY=0;entryDx=0;entryDy=0;curved=1;" edge="1" parent="1" source="B3kU9zZjSQWxvXf84LO1-7" target="B3kU9zZjSQWxvXf84LO1-19">
          <mxGeometry relative="1" as="geometry" />
        </mxCell>
        <mxCell id="B3kU9zZjSQWxvXf84LO1-34" style="rounded=0;orthogonalLoop=1;jettySize=auto;html=1;exitX=0.5;exitY=1;exitDx=0;exitDy=0;entryX=0.5;entryY=0;entryDx=0;entryDy=0;edgeStyle=orthogonalEdgeStyle;curved=1;" edge="1" parent="1" source="B3kU9zZjSQWxvXf84LO1-7" target="B3kU9zZjSQWxvXf84LO1-20">
          <mxGeometry relative="1" as="geometry" />
        </mxCell>
        <mxCell id="B3kU9zZjSQWxvXf84LO1-7" value="&lt;span style=&quot;font-size: 23px;&quot;&gt;r5&lt;/span&gt;" style="rounded=1;whiteSpace=wrap;html=1;fillColor=#ffe6cc;strokeColor=#d79b00;" vertex="1" parent="1">
          <mxGeometry x="-240" y="-240" width="80" height="40" as="geometry" />
        </mxCell>
        <mxCell id="B3kU9zZjSQWxvXf84LO1-25" style="rounded=0;orthogonalLoop=1;jettySize=auto;html=1;exitX=0.5;exitY=1;exitDx=0;exitDy=0;edgeStyle=orthogonalEdgeStyle;curved=1;" edge="1" parent="1" source="B3kU9zZjSQWxvXf84LO1-9" target="B3kU9zZjSQWxvXf84LO1-12">
          <mxGeometry relative="1" as="geometry" />
        </mxCell>
        <mxCell id="B3kU9zZjSQWxvXf84LO1-26" style="rounded=0;orthogonalLoop=1;jettySize=auto;html=1;exitX=0.5;exitY=1;exitDx=0;exitDy=0;edgeStyle=orthogonalEdgeStyle;curved=1;" edge="1" parent="1" source="B3kU9zZjSQWxvXf84LO1-9" target="B3kU9zZjSQWxvXf84LO1-13">
          <mxGeometry relative="1" as="geometry" />
        </mxCell>
        <mxCell id="B3kU9zZjSQWxvXf84LO1-9" value="&lt;span style=&quot;font-size: 23px;&quot;&gt;r2&lt;/span&gt;" style="rounded=1;whiteSpace=wrap;html=1;fillColor=#ffe6cc;strokeColor=#d79b00;" vertex="1" parent="1">
          <mxGeometry x="-741" y="-160" width="79" height="40" as="geometry" />
        </mxCell>
        <mxCell id="B3kU9zZjSQWxvXf84LO1-10" value="&lt;span style=&quot;font-size: 23px;&quot;&gt;c2&lt;/span&gt;" style="rounded=1;whiteSpace=wrap;html=1;fillColor=#e1d5e7;strokeColor=#9673a6;" vertex="1" parent="1">
          <mxGeometry x="-600" y="-160" width="79" height="40" as="geometry" />
        </mxCell>
        <mxCell id="B3kU9zZjSQWxvXf84LO1-29" style="rounded=0;orthogonalLoop=1;jettySize=auto;html=1;exitX=0.5;exitY=1;exitDx=0;exitDy=0;entryX=0.5;entryY=0;entryDx=0;entryDy=0;edgeStyle=orthogonalEdgeStyle;curved=1;" edge="1" parent="1" source="B3kU9zZjSQWxvXf84LO1-11" target="B3kU9zZjSQWxvXf84LO1-16">
          <mxGeometry relative="1" as="geometry" />
        </mxCell>
        <mxCell id="B3kU9zZjSQWxvXf84LO1-31" style="rounded=0;orthogonalLoop=1;jettySize=auto;html=1;exitX=0.5;exitY=1;exitDx=0;exitDy=0;entryX=0.5;entryY=0;entryDx=0;entryDy=0;edgeStyle=orthogonalEdgeStyle;curved=1;" edge="1" parent="1" source="B3kU9zZjSQWxvXf84LO1-11" target="B3kU9zZjSQWxvXf84LO1-17">
          <mxGeometry relative="1" as="geometry" />
        </mxCell>
        <mxCell id="B3kU9zZjSQWxvXf84LO1-11" value="&lt;span style=&quot;font-size: 23px;&quot;&gt;r4&lt;/span&gt;" style="rounded=1;whiteSpace=wrap;html=1;fillColor=#ffe6cc;strokeColor=#d79b00;" vertex="1" parent="1">
          <mxGeometry x="-480" y="-160" width="79" height="40" as="geometry" />
        </mxCell>
        <mxCell id="B3kU9zZjSQWxvXf84LO1-27" style="rounded=0;orthogonalLoop=1;jettySize=auto;html=1;exitX=0.5;exitY=1;exitDx=0;exitDy=0;entryX=0.5;entryY=0;entryDx=0;entryDy=0;edgeStyle=orthogonalEdgeStyle;curved=1;" edge="1" parent="1" source="B3kU9zZjSQWxvXf84LO1-12" target="B3kU9zZjSQWxvXf84LO1-14">
          <mxGeometry relative="1" as="geometry" />
        </mxCell>
        <mxCell id="B3kU9zZjSQWxvXf84LO1-28" style="rounded=0;orthogonalLoop=1;jettySize=auto;html=1;exitX=0.5;exitY=1;exitDx=0;exitDy=0;entryX=0.5;entryY=0;entryDx=0;entryDy=0;edgeStyle=orthogonalEdgeStyle;curved=1;" edge="1" parent="1" source="B3kU9zZjSQWxvXf84LO1-12" target="B3kU9zZjSQWxvXf84LO1-15">
          <mxGeometry relative="1" as="geometry" />
        </mxCell>
        <mxCell id="B3kU9zZjSQWxvXf84LO1-12" value="&lt;span style=&quot;font-size: 23px;&quot;&gt;r3&lt;/span&gt;" style="rounded=1;whiteSpace=wrap;html=1;fillColor=#ffe6cc;strokeColor=#d79b00;" vertex="1" parent="1">
          <mxGeometry x="-800" y="-80" width="79" height="40" as="geometry" />
        </mxCell>
        <mxCell id="B3kU9zZjSQWxvXf84LO1-13" value="&lt;span style=&quot;font-size: 23px;&quot;&gt;c5&lt;/span&gt;" style="rounded=1;whiteSpace=wrap;html=1;fillColor=#e1d5e7;strokeColor=#9673a6;" vertex="1" parent="1">
          <mxGeometry x="-680" y="-80" width="79" height="40" as="geometry" />
        </mxCell>
        <mxCell id="B3kU9zZjSQWxvXf84LO1-14" value="&lt;span style=&quot;font-size: 23px;&quot;&gt;c6&lt;/span&gt;" style="rounded=1;whiteSpace=wrap;html=1;fillColor=#e1d5e7;strokeColor=#9673a6;" vertex="1" parent="1">
          <mxGeometry x="-860" width="79" height="40" as="geometry" />
        </mxCell>
        <mxCell id="B3kU9zZjSQWxvXf84LO1-15" value="&lt;span style=&quot;font-size: 23px;&quot;&gt;c7&lt;/span&gt;" style="rounded=1;whiteSpace=wrap;html=1;fillColor=#e1d5e7;strokeColor=#9673a6;" vertex="1" parent="1">
          <mxGeometry x="-741" width="79" height="40" as="geometry" />
        </mxCell>
        <mxCell id="B3kU9zZjSQWxvXf84LO1-16" value="&lt;span style=&quot;font-size: 23px;&quot;&gt;c8&lt;/span&gt;" style="rounded=1;whiteSpace=wrap;html=1;fillColor=#e1d5e7;strokeColor=#9673a6;" vertex="1" parent="1">
          <mxGeometry x="-540" y="-80" width="79" height="40" as="geometry" />
        </mxCell>
        <mxCell id="B3kU9zZjSQWxvXf84LO1-17" value="&lt;span style=&quot;font-size: 23px;&quot;&gt;c9&lt;/span&gt;" style="rounded=1;whiteSpace=wrap;html=1;fillColor=#e1d5e7;strokeColor=#9673a6;" vertex="1" parent="1">
          <mxGeometry x="-420" y="-80" width="79" height="40" as="geometry" />
        </mxCell>
        <mxCell id="B3kU9zZjSQWxvXf84LO1-18" value="&lt;span style=&quot;font-size: 23px;&quot;&gt;c10&lt;/span&gt;" style="rounded=1;whiteSpace=wrap;html=1;fillColor=#e1d5e7;strokeColor=#9673a6;" vertex="1" parent="1">
          <mxGeometry x="-359" y="-160" width="79" height="40" as="geometry" />
        </mxCell>
        <mxCell id="B3kU9zZjSQWxvXf84LO1-19" value="&lt;span style=&quot;font-size: 23px;&quot;&gt;c11&lt;/span&gt;" style="rounded=1;whiteSpace=wrap;html=1;fillColor=#e1d5e7;strokeColor=#9673a6;" vertex="1" parent="1">
          <mxGeometry x="-240" y="-161" width="79" height="40" as="geometry" />
        </mxCell>
        <mxCell id="B3kU9zZjSQWxvXf84LO1-20" value="&lt;span style=&quot;font-size: 23px;&quot;&gt;c12&lt;/span&gt;" style="rounded=1;whiteSpace=wrap;html=1;fillColor=#e1d5e7;strokeColor=#9673a6;" vertex="1" parent="1">
          <mxGeometry x="-120" y="-161" width="79" height="40" as="geometry" />
        </mxCell>
      </root>
    </mxGraphModel>
  </diagram>
</mxfile>
